<mxfile host="Electron" agent="Mozilla/5.0 (Windows NT 10.0; Win64; x64) AppleWebKit/537.36 (KHTML, like Gecko) draw.io/24.7.17 Chrome/128.0.6613.36 Electron/32.0.1 Safari/537.36" version="24.7.17">
  <diagram name="Pagina-1" id="nE9x_HqnzeP_BkiM5YJi">
    <mxGraphModel dx="1295" dy="1927" grid="1" gridSize="10" guides="1" tooltips="1" connect="1" arrows="1" fold="1" page="1" pageScale="1" pageWidth="827" pageHeight="1169" math="0" shadow="0">
      <root>
        <mxCell id="0" />
        <mxCell id="1" parent="0" />
        <mxCell id="m56gPD-ubqhTa6Vr48Xi-1" value="&lt;b&gt;Amministratore&lt;/b&gt;" style="shape=umlActor;verticalLabelPosition=bottom;verticalAlign=top;html=1;outlineConnect=0;" parent="1" vertex="1">
          <mxGeometry x="330" y="-55" width="30" height="60" as="geometry" />
        </mxCell>
        <mxCell id="m56gPD-ubqhTa6Vr48Xi-3" value="Crea account di supporto" style="ellipse;whiteSpace=wrap;html=1;fillColor=#ffe6cc;strokeColor=#d79b00;" parent="1" vertex="1">
          <mxGeometry x="648" y="-120" width="170" height="50" as="geometry" />
        </mxCell>
        <mxCell id="m56gPD-ubqhTa6Vr48Xi-4" value="Modifica password di amministrazione" style="ellipse;whiteSpace=wrap;html=1;fillColor=#ffe6cc;strokeColor=#d79b00;" parent="1" vertex="1">
          <mxGeometry x="618" y="-50" width="230" height="50" as="geometry" />
        </mxCell>
        <mxCell id="m56gPD-ubqhTa6Vr48Xi-5" value="Crea account per agente immobiliare" style="ellipse;whiteSpace=wrap;html=1;fillColor=#ffe6cc;strokeColor=#d79b00;" parent="1" vertex="1">
          <mxGeometry x="638" y="20" width="210" height="50" as="geometry" />
        </mxCell>
        <mxCell id="m56gPD-ubqhTa6Vr48Xi-7" value="" style="endArrow=none;html=1;rounded=0;entryX=0;entryY=0.5;entryDx=0;entryDy=0;" parent="1" target="m56gPD-ubqhTa6Vr48Xi-3" edge="1">
          <mxGeometry relative="1" as="geometry">
            <mxPoint x="380" y="-50" as="sourcePoint" />
            <mxPoint x="770" y="180" as="targetPoint" />
          </mxGeometry>
        </mxCell>
        <mxCell id="m56gPD-ubqhTa6Vr48Xi-8" value="" style="endArrow=none;html=1;rounded=0;entryX=0;entryY=0.5;entryDx=0;entryDy=0;" parent="1" target="m56gPD-ubqhTa6Vr48Xi-4" edge="1">
          <mxGeometry relative="1" as="geometry">
            <mxPoint x="380" y="-40" as="sourcePoint" />
            <mxPoint x="740" as="targetPoint" />
          </mxGeometry>
        </mxCell>
        <mxCell id="m56gPD-ubqhTa6Vr48Xi-9" value="" style="endArrow=none;html=1;rounded=0;entryX=0;entryY=0.5;entryDx=0;entryDy=0;" parent="1" target="m56gPD-ubqhTa6Vr48Xi-5" edge="1">
          <mxGeometry relative="1" as="geometry">
            <mxPoint x="380" y="-20" as="sourcePoint" />
            <mxPoint x="740" as="targetPoint" />
          </mxGeometry>
        </mxCell>
        <mxCell id="m56gPD-ubqhTa6Vr48Xi-10" value="&lt;b&gt;Utente&lt;/b&gt;" style="shape=umlActor;verticalLabelPosition=bottom;verticalAlign=top;html=1;" parent="1" vertex="1">
          <mxGeometry x="350" y="320" width="30" height="60" as="geometry" />
        </mxCell>
        <mxCell id="m56gPD-ubqhTa6Vr48Xi-11" value="&lt;b&gt;Acquirente&lt;/b&gt;" style="shape=umlActor;verticalLabelPosition=bottom;verticalAlign=top;html=1;" parent="1" vertex="1">
          <mxGeometry x="410" y="470" width="30" height="60" as="geometry" />
        </mxCell>
        <mxCell id="m56gPD-ubqhTa6Vr48Xi-12" value="&lt;b&gt;Agente Immobiliare&lt;/b&gt;" style="shape=umlActor;verticalLabelPosition=bottom;verticalAlign=top;html=1;" parent="1" vertex="1">
          <mxGeometry x="290" y="470" width="30" height="60" as="geometry" />
        </mxCell>
        <mxCell id="m56gPD-ubqhTa6Vr48Xi-13" value="" style="endArrow=block;endSize=16;endFill=0;html=1;rounded=0;" parent="1" edge="1">
          <mxGeometry width="160" relative="1" as="geometry">
            <mxPoint x="310" y="460" as="sourcePoint" />
            <mxPoint x="350" y="410" as="targetPoint" />
          </mxGeometry>
        </mxCell>
        <mxCell id="m56gPD-ubqhTa6Vr48Xi-14" value="" style="endArrow=block;endSize=16;endFill=0;html=1;rounded=0;" parent="1" edge="1">
          <mxGeometry width="160" relative="1" as="geometry">
            <mxPoint x="420" y="460" as="sourcePoint" />
            <mxPoint x="380" y="410" as="targetPoint" />
          </mxGeometry>
        </mxCell>
        <mxCell id="m56gPD-ubqhTa6Vr48Xi-15" value="Effettua registrazione" style="ellipse;whiteSpace=wrap;html=1;fillColor=#ffe6cc;strokeColor=#d79b00;" parent="1" vertex="1">
          <mxGeometry x="627.5" y="455" width="140" height="50" as="geometry" />
        </mxCell>
        <mxCell id="m56gPD-ubqhTa6Vr48Xi-16" value="Effettua login" style="ellipse;whiteSpace=wrap;html=1;fillColor=#ffe6cc;strokeColor=#d79b00;" parent="1" vertex="1">
          <mxGeometry x="630" y="330" width="140" height="35" as="geometry" />
        </mxCell>
        <mxCell id="m56gPD-ubqhTa6Vr48Xi-17" value="" style="endArrow=none;html=1;rounded=0;entryX=0;entryY=0.5;entryDx=0;entryDy=0;" parent="1" target="m56gPD-ubqhTa6Vr48Xi-15" edge="1">
          <mxGeometry relative="1" as="geometry">
            <mxPoint x="450" y="500" as="sourcePoint" />
            <mxPoint x="710" y="540" as="targetPoint" />
          </mxGeometry>
        </mxCell>
        <mxCell id="m56gPD-ubqhTa6Vr48Xi-18" value="" style="endArrow=none;html=1;rounded=0;entryX=0;entryY=0.5;entryDx=0;entryDy=0;" parent="1" target="m56gPD-ubqhTa6Vr48Xi-16" edge="1">
          <mxGeometry relative="1" as="geometry">
            <mxPoint x="450" y="490" as="sourcePoint" />
            <mxPoint x="710" y="340" as="targetPoint" />
          </mxGeometry>
        </mxCell>
        <mxCell id="m56gPD-ubqhTa6Vr48Xi-19" value="Usa credenziali GitHub" style="ellipse;whiteSpace=wrap;html=1;fillColor=#ffe6cc;strokeColor=#d79b00;" parent="1" vertex="1">
          <mxGeometry x="1072.5" y="360" width="140" height="50" as="geometry" />
        </mxCell>
        <mxCell id="m56gPD-ubqhTa6Vr48Xi-20" value="Usa credenziali Facebook" style="ellipse;whiteSpace=wrap;html=1;fillColor=#ffe6cc;strokeColor=#d79b00;" parent="1" vertex="1">
          <mxGeometry x="1100" y="490" width="150" height="50" as="geometry" />
        </mxCell>
        <mxCell id="m56gPD-ubqhTa6Vr48Xi-21" value="Usa credenziali Google" style="ellipse;whiteSpace=wrap;html=1;fillColor=#ffe6cc;strokeColor=#d79b00;" parent="1" vertex="1">
          <mxGeometry x="1067.5" y="585" width="150" height="50" as="geometry" />
        </mxCell>
        <mxCell id="m56gPD-ubqhTa6Vr48Xi-22" value="" style="endArrow=open;endSize=12;dashed=1;html=1;rounded=0;entryX=1;entryY=0.5;entryDx=0;entryDy=0;exitX=0;exitY=1;exitDx=0;exitDy=0;" parent="1" source="m56gPD-ubqhTa6Vr48Xi-20" target="m56gPD-ubqhTa6Vr48Xi-15" edge="1">
          <mxGeometry width="160" relative="1" as="geometry">
            <mxPoint x="618" y="515" as="sourcePoint" />
            <mxPoint x="778" y="430" as="targetPoint" />
          </mxGeometry>
        </mxCell>
        <mxCell id="m56gPD-ubqhTa6Vr48Xi-23" value="" style="endArrow=open;endSize=12;dashed=1;html=1;rounded=0;exitX=0;exitY=1;exitDx=0;exitDy=0;entryX=1;entryY=1;entryDx=0;entryDy=0;" parent="1" source="m56gPD-ubqhTa6Vr48Xi-21" target="m56gPD-ubqhTa6Vr48Xi-15" edge="1">
          <mxGeometry width="160" relative="1" as="geometry">
            <mxPoint x="898" y="470" as="sourcePoint" />
            <mxPoint x="730" y="510" as="targetPoint" />
          </mxGeometry>
        </mxCell>
        <mxCell id="m56gPD-ubqhTa6Vr48Xi-24" value="" style="endArrow=open;endSize=12;dashed=1;html=1;rounded=0;entryX=1;entryY=0;entryDx=0;entryDy=0;exitX=0;exitY=1;exitDx=0;exitDy=0;" parent="1" source="m56gPD-ubqhTa6Vr48Xi-19" target="m56gPD-ubqhTa6Vr48Xi-15" edge="1">
          <mxGeometry width="160" relative="1" as="geometry">
            <mxPoint x="898" y="470" as="sourcePoint" />
            <mxPoint x="757.4974746830583" y="412.3223304703363" as="targetPoint" />
          </mxGeometry>
        </mxCell>
        <mxCell id="m56gPD-ubqhTa6Vr48Xi-25" value="&amp;lt;&amp;lt;extends&amp;gt;&amp;gt;" style="text;html=1;align=center;verticalAlign=middle;resizable=0;points=[];autosize=1;strokeColor=none;fillColor=none;rotation=-5;" parent="1" vertex="1">
          <mxGeometry x="970" y="385" width="90" height="30" as="geometry" />
        </mxCell>
        <mxCell id="m56gPD-ubqhTa6Vr48Xi-26" value="&amp;lt;&amp;lt;extends&amp;gt;&amp;gt;" style="text;html=1;align=center;verticalAlign=middle;resizable=0;points=[];autosize=1;strokeColor=none;fillColor=none;rotation=10;" parent="1" vertex="1">
          <mxGeometry x="1000" y="495" width="90" height="30" as="geometry" />
        </mxCell>
        <mxCell id="m56gPD-ubqhTa6Vr48Xi-27" value="&amp;lt;&amp;lt;extends&amp;gt;&amp;gt;" style="text;html=1;align=center;verticalAlign=middle;resizable=0;points=[];autosize=1;strokeColor=none;fillColor=none;rotation=20;" parent="1" vertex="1">
          <mxGeometry x="885" y="535" width="90" height="30" as="geometry" />
        </mxCell>
        <mxCell id="m56gPD-ubqhTa6Vr48Xi-28" value="&lt;b&gt;Git Provider&lt;/b&gt;" style="shape=umlActor;verticalLabelPosition=bottom;verticalAlign=top;html=1;" parent="1" vertex="1">
          <mxGeometry x="1307.5" y="355" width="30" height="60" as="geometry" />
        </mxCell>
        <mxCell id="m56gPD-ubqhTa6Vr48Xi-29" value="" style="endArrow=none;html=1;rounded=0;exitX=1;exitY=0.5;exitDx=0;exitDy=0;" parent="1" source="m56gPD-ubqhTa6Vr48Xi-19" edge="1">
          <mxGeometry relative="1" as="geometry">
            <mxPoint x="1047.5" y="465" as="sourcePoint" />
            <mxPoint x="1300" y="385" as="targetPoint" />
          </mxGeometry>
        </mxCell>
        <mxCell id="m56gPD-ubqhTa6Vr48Xi-30" value="&lt;b&gt;Facebook Provider&lt;/b&gt;" style="shape=umlActor;verticalLabelPosition=bottom;verticalAlign=top;html=1;" parent="1" vertex="1">
          <mxGeometry x="1307.5" y="495" width="30" height="60" as="geometry" />
        </mxCell>
        <mxCell id="m56gPD-ubqhTa6Vr48Xi-31" value="" style="endArrow=none;html=1;rounded=0;exitX=1;exitY=0.5;exitDx=0;exitDy=0;" parent="1" source="m56gPD-ubqhTa6Vr48Xi-20" edge="1">
          <mxGeometry relative="1" as="geometry">
            <mxPoint x="1047.5" y="465" as="sourcePoint" />
            <mxPoint x="1297.5" y="525" as="targetPoint" />
          </mxGeometry>
        </mxCell>
        <mxCell id="m56gPD-ubqhTa6Vr48Xi-32" value="&lt;b&gt;Google Provider&lt;/b&gt;" style="shape=umlActor;verticalLabelPosition=bottom;verticalAlign=top;html=1;" parent="1" vertex="1">
          <mxGeometry x="1307.5" y="615" width="30" height="60" as="geometry" />
        </mxCell>
        <mxCell id="m56gPD-ubqhTa6Vr48Xi-33" value="" style="endArrow=none;html=1;rounded=0;exitX=1;exitY=0.5;exitDx=0;exitDy=0;" parent="1" source="m56gPD-ubqhTa6Vr48Xi-21" edge="1">
          <mxGeometry relative="1" as="geometry">
            <mxPoint x="1047.5" y="565" as="sourcePoint" />
            <mxPoint x="1297.5" y="645" as="targetPoint" />
          </mxGeometry>
        </mxCell>
        <mxCell id="m56gPD-ubqhTa6Vr48Xi-34" value="Visualizza Dashboard&amp;nbsp;" style="ellipse;whiteSpace=wrap;html=1;fillColor=#ffe6cc;strokeColor=#d79b00;" parent="1" vertex="1">
          <mxGeometry x="610" y="860" width="140" height="50" as="geometry" />
        </mxCell>
        <mxCell id="m56gPD-ubqhTa6Vr48Xi-35" value="" style="endArrow=none;html=1;rounded=0;exitX=0;exitY=0.5;exitDx=0;exitDy=0;" parent="1" source="m56gPD-ubqhTa6Vr48Xi-34" edge="1">
          <mxGeometry relative="1" as="geometry">
            <mxPoint x="640" y="640" as="sourcePoint" />
            <mxPoint x="330" y="560" as="targetPoint" />
          </mxGeometry>
        </mxCell>
        <mxCell id="m56gPD-ubqhTa6Vr48Xi-36" value="Esporta in PDF" style="ellipse;whiteSpace=wrap;html=1;fillColor=#ffe6cc;strokeColor=#d79b00;" parent="1" vertex="1">
          <mxGeometry x="895" y="900" width="120" height="35" as="geometry" />
        </mxCell>
        <mxCell id="m56gPD-ubqhTa6Vr48Xi-37" value="" style="endArrow=open;endSize=12;dashed=1;html=1;rounded=0;entryX=1;entryY=0.5;entryDx=0;entryDy=0;exitX=0;exitY=0.5;exitDx=0;exitDy=0;" parent="1" source="m56gPD-ubqhTa6Vr48Xi-36" target="m56gPD-ubqhTa6Vr48Xi-34" edge="1">
          <mxGeometry width="160" relative="1" as="geometry">
            <mxPoint x="885" y="1070" as="sourcePoint" />
            <mxPoint x="750" y="890" as="targetPoint" />
          </mxGeometry>
        </mxCell>
        <mxCell id="m56gPD-ubqhTa6Vr48Xi-38" value="&amp;lt;&amp;lt;extends&amp;gt;&amp;gt;" style="text;html=1;align=center;verticalAlign=middle;resizable=0;points=[];autosize=1;strokeColor=none;fillColor=none;rotation=15;" parent="1" vertex="1">
          <mxGeometry x="795" y="880" width="90" height="30" as="geometry" />
        </mxCell>
        <mxCell id="m56gPD-ubqhTa6Vr48Xi-39" value="Carica nuovo immobile" style="ellipse;whiteSpace=wrap;html=1;fillColor=#ffe6cc;strokeColor=#d79b00;" parent="1" vertex="1">
          <mxGeometry x="620" y="950" width="140" height="50" as="geometry" />
        </mxCell>
        <mxCell id="m56gPD-ubqhTa6Vr48Xi-40" value="" style="endArrow=none;html=1;rounded=0;entryX=0;entryY=0.5;entryDx=0;entryDy=0;" parent="1" target="m56gPD-ubqhTa6Vr48Xi-39" edge="1">
          <mxGeometry relative="1" as="geometry">
            <mxPoint x="310" y="560" as="sourcePoint" />
            <mxPoint x="690" y="640" as="targetPoint" />
            <Array as="points">
              <mxPoint x="530" y="900" />
            </Array>
          </mxGeometry>
        </mxCell>
        <mxCell id="m56gPD-ubqhTa6Vr48Xi-41" value="Visualizza dettagli immobile" style="ellipse;whiteSpace=wrap;html=1;fillColor=#ffe6cc;strokeColor=#d79b00;" parent="1" vertex="1">
          <mxGeometry x="600" y="635" width="170" height="50" as="geometry" />
        </mxCell>
        <mxCell id="m56gPD-ubqhTa6Vr48Xi-43" value="&lt;b&gt;Geoapify&lt;/b&gt;" style="shape=umlActor;verticalLabelPosition=bottom;verticalAlign=top;html=1;" parent="1" vertex="1">
          <mxGeometry x="1277.5" y="730" width="30" height="60" as="geometry" />
        </mxCell>
        <mxCell id="m56gPD-ubqhTa6Vr48Xi-44" value="" style="endArrow=none;html=1;rounded=0;entryX=1;entryY=0.5;entryDx=0;entryDy=0;" parent="1" target="m56gPD-ubqhTa6Vr48Xi-41" edge="1">
          <mxGeometry relative="1" as="geometry">
            <mxPoint x="1260" y="760" as="sourcePoint" />
            <mxPoint x="685" y="550" as="targetPoint" />
          </mxGeometry>
        </mxCell>
        <mxCell id="m56gPD-ubqhTa6Vr48Xi-45" value="Visualizza posizione geografica" style="ellipse;whiteSpace=wrap;html=1;fillColor=#ffe6cc;strokeColor=#d79b00;" parent="1" vertex="1">
          <mxGeometry x="970" y="760" width="181.25" height="40" as="geometry" />
        </mxCell>
        <mxCell id="m56gPD-ubqhTa6Vr48Xi-46" value="" style="endArrow=open;endSize=12;dashed=1;html=1;rounded=0;entryX=1;entryY=1;entryDx=0;entryDy=0;exitX=0;exitY=0.5;exitDx=0;exitDy=0;" parent="1" source="m56gPD-ubqhTa6Vr48Xi-45" target="m56gPD-ubqhTa6Vr48Xi-41" edge="1">
          <mxGeometry width="160" relative="1" as="geometry">
            <mxPoint x="792.5" y="900" as="sourcePoint" />
            <mxPoint x="657.5" y="715" as="targetPoint" />
          </mxGeometry>
        </mxCell>
        <mxCell id="m56gPD-ubqhTa6Vr48Xi-47" value="&amp;lt;&amp;lt;extends&amp;gt;&amp;gt;" style="text;html=1;align=center;verticalAlign=middle;resizable=0;points=[];autosize=1;strokeColor=none;fillColor=none;rotation=25;" parent="1" vertex="1">
          <mxGeometry x="827" y="710" width="90" height="30" as="geometry" />
        </mxCell>
        <mxCell id="m56gPD-ubqhTa6Vr48Xi-48" value="&lt;b&gt;Google Maps&lt;/b&gt;" style="shape=umlActor;verticalLabelPosition=bottom;verticalAlign=top;html=1;" parent="1" vertex="1">
          <mxGeometry x="1250" y="860" width="30" height="60" as="geometry" />
        </mxCell>
        <mxCell id="m56gPD-ubqhTa6Vr48Xi-49" value="" style="endArrow=none;html=1;rounded=0;entryX=1;entryY=0.5;entryDx=0;entryDy=0;" parent="1" target="m56gPD-ubqhTa6Vr48Xi-45" edge="1">
          <mxGeometry relative="1" as="geometry">
            <mxPoint x="1240" y="880" as="sourcePoint" />
            <mxPoint x="1055" y="790" as="targetPoint" />
          </mxGeometry>
        </mxCell>
        <mxCell id="m56gPD-ubqhTa6Vr48Xi-50" value="Ricerca immobile" style="ellipse;whiteSpace=wrap;html=1;fillColor=#ffe6cc;strokeColor=#d79b00;" parent="1" vertex="1">
          <mxGeometry x="620" y="750" width="120" height="50" as="geometry" />
        </mxCell>
        <mxCell id="m56gPD-ubqhTa6Vr48Xi-52" value="" style="endArrow=none;html=1;rounded=0;entryX=1;entryY=0.5;entryDx=0;entryDy=0;" parent="1" target="m56gPD-ubqhTa6Vr48Xi-50" edge="1">
          <mxGeometry relative="1" as="geometry">
            <mxPoint x="1230" y="900" as="sourcePoint" />
            <mxPoint x="785" y="650" as="targetPoint" />
          </mxGeometry>
        </mxCell>
        <mxCell id="m56gPD-ubqhTa6Vr48Xi-53" value="Prenota visita per immobile" style="ellipse;whiteSpace=wrap;html=1;fillColor=#ffe6cc;strokeColor=#d79b00;" parent="1" vertex="1">
          <mxGeometry x="580" y="1130" width="170" height="50" as="geometry" />
        </mxCell>
        <mxCell id="m56gPD-ubqhTa6Vr48Xi-54" value="" style="endArrow=none;html=1;rounded=0;entryX=0;entryY=0;entryDx=0;entryDy=0;" parent="1" target="m56gPD-ubqhTa6Vr48Xi-53" edge="1">
          <mxGeometry relative="1" as="geometry">
            <mxPoint x="410" y="560" as="sourcePoint" />
            <mxPoint x="790" y="740" as="targetPoint" />
            <Array as="points">
              <mxPoint x="400" y="700" />
              <mxPoint x="390" y="860" />
              <mxPoint x="390" y="970" />
            </Array>
          </mxGeometry>
        </mxCell>
        <mxCell id="m56gPD-ubqhTa6Vr48Xi-55" value="" style="endArrow=none;html=1;rounded=0;exitX=0;exitY=0.5;exitDx=0;exitDy=0;" parent="1" source="m56gPD-ubqhTa6Vr48Xi-53" edge="1">
          <mxGeometry relative="1" as="geometry">
            <mxPoint x="630" y="840" as="sourcePoint" />
            <mxPoint x="290" y="560" as="targetPoint" />
            <Array as="points">
              <mxPoint x="360" y="990" />
            </Array>
          </mxGeometry>
        </mxCell>
        <mxCell id="m56gPD-ubqhTa6Vr48Xi-57" value="" style="endArrow=none;html=1;rounded=0;entryX=0;entryY=0.5;entryDx=0;entryDy=0;" parent="1" target="m56gPD-ubqhTa6Vr48Xi-50" edge="1">
          <mxGeometry relative="1" as="geometry">
            <mxPoint x="430" y="560" as="sourcePoint" />
            <mxPoint x="860" y="540" as="targetPoint" />
            <Array as="points">
              <mxPoint x="490" y="690" />
            </Array>
          </mxGeometry>
        </mxCell>
        <mxCell id="ZRaR8AMyI3EaJyiS3ISA-3" value="Gestisci immobile" style="ellipse;whiteSpace=wrap;html=1;fillColor=#ffe6cc;strokeColor=#d79b00;" parent="1" vertex="1">
          <mxGeometry x="610" y="1210" width="168.5" height="50" as="geometry" />
        </mxCell>
        <mxCell id="ZRaR8AMyI3EaJyiS3ISA-4" value="" style="endArrow=none;html=1;rounded=0;entryX=0;entryY=0.5;entryDx=0;entryDy=0;" parent="1" target="ZRaR8AMyI3EaJyiS3ISA-3" edge="1">
          <mxGeometry relative="1" as="geometry">
            <mxPoint x="270" y="560" as="sourcePoint" />
            <mxPoint x="700" y="840" as="targetPoint" />
            <Array as="points">
              <mxPoint x="330" y="1060" />
            </Array>
          </mxGeometry>
        </mxCell>
        <mxCell id="L9C86C4IjE9wNuAZnblA-1" value="" style="endArrow=open;endSize=12;dashed=1;html=1;rounded=0;entryX=1;entryY=0;entryDx=0;entryDy=0;exitX=0;exitY=0;exitDx=0;exitDy=0;" parent="1" source="m56gPD-ubqhTa6Vr48Xi-19" target="m56gPD-ubqhTa6Vr48Xi-16" edge="1">
          <mxGeometry width="160" relative="1" as="geometry">
            <mxPoint x="971" y="330" as="sourcePoint" />
            <mxPoint x="788" y="387" as="targetPoint" />
          </mxGeometry>
        </mxCell>
        <mxCell id="L9C86C4IjE9wNuAZnblA-2" value="&amp;lt;&amp;lt;extends&amp;gt;&amp;gt;" style="text;html=1;align=center;verticalAlign=middle;resizable=0;points=[];autosize=1;strokeColor=none;fillColor=none;rotation=0;" parent="1" vertex="1">
          <mxGeometry x="982.5" y="335" width="90" height="30" as="geometry" />
        </mxCell>
        <mxCell id="L9C86C4IjE9wNuAZnblA-3" value="" style="endArrow=open;endSize=12;dashed=1;html=1;rounded=0;entryX=1;entryY=0.5;entryDx=0;entryDy=0;exitX=0;exitY=0;exitDx=0;exitDy=0;" parent="1" source="m56gPD-ubqhTa6Vr48Xi-20" edge="1">
          <mxGeometry width="160" relative="1" as="geometry">
            <mxPoint x="1089.466991411009" y="505.0023304703365" as="sourcePoint" />
            <mxPoint x="770" y="350.18" as="targetPoint" />
          </mxGeometry>
        </mxCell>
        <mxCell id="L9C86C4IjE9wNuAZnblA-4" value="&amp;lt;&amp;lt;extends&amp;gt;&amp;gt;" style="text;html=1;align=center;verticalAlign=middle;resizable=0;points=[];autosize=1;strokeColor=none;fillColor=none;rotation=25;" parent="1" vertex="1">
          <mxGeometry x="1040" y="455" width="90" height="30" as="geometry" />
        </mxCell>
        <mxCell id="L9C86C4IjE9wNuAZnblA-6" value="" style="endArrow=open;endSize=12;dashed=1;html=1;rounded=0;exitX=0;exitY=0;exitDx=0;exitDy=0;entryX=1;entryY=1;entryDx=0;entryDy=0;" parent="1" source="m56gPD-ubqhTa6Vr48Xi-21" target="m56gPD-ubqhTa6Vr48Xi-16" edge="1">
          <mxGeometry width="160" relative="1" as="geometry">
            <mxPoint x="1099" y="638" as="sourcePoint" />
            <mxPoint x="757" y="508" as="targetPoint" />
          </mxGeometry>
        </mxCell>
        <mxCell id="L9C86C4IjE9wNuAZnblA-7" value="&amp;lt;&amp;lt;extends&amp;gt;&amp;gt;" style="text;html=1;align=center;verticalAlign=middle;resizable=0;points=[];autosize=1;strokeColor=none;fillColor=none;rotation=30;" parent="1" vertex="1">
          <mxGeometry x="760" y="400" width="90" height="30" as="geometry" />
        </mxCell>
        <mxCell id="L9C86C4IjE9wNuAZnblA-8" value="Autenticati come amministratore" style="ellipse;whiteSpace=wrap;html=1;fillColor=#ffe6cc;strokeColor=#d79b00;" parent="1" vertex="1">
          <mxGeometry x="638" y="100" width="210" height="50" as="geometry" />
        </mxCell>
        <mxCell id="L9C86C4IjE9wNuAZnblA-9" value="Autenticati come agente immobiliare" style="ellipse;whiteSpace=wrap;html=1;fillColor=#ffe6cc;strokeColor=#d79b00;" parent="1" vertex="1">
          <mxGeometry x="638" y="190" width="210" height="50" as="geometry" />
        </mxCell>
        <mxCell id="L9C86C4IjE9wNuAZnblA-10" value="" style="endArrow=none;html=1;rounded=0;entryX=0;entryY=0.5;entryDx=0;entryDy=0;" parent="1" target="L9C86C4IjE9wNuAZnblA-8" edge="1">
          <mxGeometry relative="1" as="geometry">
            <mxPoint x="400" y="10" as="sourcePoint" />
            <mxPoint x="860" y="350" as="targetPoint" />
          </mxGeometry>
        </mxCell>
        <mxCell id="L9C86C4IjE9wNuAZnblA-11" value="" style="endArrow=none;html=1;rounded=0;entryX=0;entryY=0.5;entryDx=0;entryDy=0;" parent="1" target="L9C86C4IjE9wNuAZnblA-9" edge="1">
          <mxGeometry relative="1" as="geometry">
            <mxPoint x="280" y="500" as="sourcePoint" />
            <mxPoint x="860" y="350" as="targetPoint" />
            <Array as="points">
              <mxPoint x="200" y="240" />
            </Array>
          </mxGeometry>
        </mxCell>
        <mxCell id="bWOjUlZsNTpFT86q7Jki-1" value="Salva annuncio tra i preferiti" style="ellipse;whiteSpace=wrap;html=1;fillColor=#ffe6cc;strokeColor=#d79b00;" parent="1" vertex="1">
          <mxGeometry x="580" y="1040" width="170" height="50" as="geometry" />
        </mxCell>
        <mxCell id="bWOjUlZsNTpFT86q7Jki-2" value="" style="endArrow=none;html=1;rounded=0;entryX=0;entryY=0.5;entryDx=0;entryDy=0;" parent="1" target="bWOjUlZsNTpFT86q7Jki-1" edge="1">
          <mxGeometry relative="1" as="geometry">
            <mxPoint x="420" y="560" as="sourcePoint" />
            <mxPoint x="630" y="1060" as="targetPoint" />
            <Array as="points">
              <mxPoint x="440" y="850" />
            </Array>
          </mxGeometry>
        </mxCell>
        <mxCell id="bWOjUlZsNTpFT86q7Jki-4" value="Visualizza profilo" style="ellipse;whiteSpace=wrap;html=1;fillColor=#ffe6cc;strokeColor=#d79b00;" parent="1" vertex="1">
          <mxGeometry x="608.5" y="535" width="170" height="50" as="geometry" />
        </mxCell>
        <mxCell id="bWOjUlZsNTpFT86q7Jki-5" value="" style="endArrow=none;html=1;rounded=0;entryX=0.214;entryY=0.117;entryDx=0;entryDy=0;entryPerimeter=0;" parent="1" target="bWOjUlZsNTpFT86q7Jki-4" edge="1">
          <mxGeometry relative="1" as="geometry">
            <mxPoint x="390" y="360" as="sourcePoint" />
            <mxPoint x="600" y="560" as="targetPoint" />
          </mxGeometry>
        </mxCell>
        <mxCell id="xYdfVFBbMIf11f9UNHaM-1" value="" style="endArrow=none;html=1;rounded=0;exitX=0;exitY=0.5;exitDx=0;exitDy=0;" edge="1" parent="1" source="m56gPD-ubqhTa6Vr48Xi-41">
          <mxGeometry width="50" height="50" relative="1" as="geometry">
            <mxPoint x="610" y="590" as="sourcePoint" />
            <mxPoint x="450" y="560" as="targetPoint" />
          </mxGeometry>
        </mxCell>
        <mxCell id="xYdfVFBbMIf11f9UNHaM-2" value="Modifica dettagli immobile" style="ellipse;whiteSpace=wrap;html=1;fillColor=#ffe6cc;strokeColor=#d79b00;" vertex="1" parent="1">
          <mxGeometry x="1003.25" y="1130" width="168.5" height="50" as="geometry" />
        </mxCell>
        <mxCell id="xYdfVFBbMIf11f9UNHaM-3" value="Cancella immobile" style="ellipse;whiteSpace=wrap;html=1;fillColor=#ffe6cc;strokeColor=#d79b00;" vertex="1" parent="1">
          <mxGeometry x="1018.25" y="1221" width="138.5" height="50" as="geometry" />
        </mxCell>
        <mxCell id="xYdfVFBbMIf11f9UNHaM-4" value="Segna immobile come venduto/affittato" style="ellipse;whiteSpace=wrap;html=1;fillColor=#ffe6cc;strokeColor=#d79b00;" vertex="1" parent="1">
          <mxGeometry x="975" y="1311" width="225" height="50" as="geometry" />
        </mxCell>
        <mxCell id="xYdfVFBbMIf11f9UNHaM-5" value="" style="endArrow=open;endSize=12;dashed=1;html=1;rounded=0;entryX=1;entryY=0.5;entryDx=0;entryDy=0;exitX=0;exitY=0.5;exitDx=0;exitDy=0;" edge="1" parent="1" source="xYdfVFBbMIf11f9UNHaM-3" target="ZRaR8AMyI3EaJyiS3ISA-3">
          <mxGeometry width="160" relative="1" as="geometry">
            <mxPoint x="970" y="1247" as="sourcePoint" />
            <mxPoint x="825" y="1215" as="targetPoint" />
          </mxGeometry>
        </mxCell>
        <mxCell id="xYdfVFBbMIf11f9UNHaM-6" value="&amp;lt;&amp;lt;extends&amp;gt;&amp;gt;" style="text;html=1;align=center;verticalAlign=middle;resizable=0;points=[];autosize=1;strokeColor=none;fillColor=none;rotation=-15;" vertex="1" parent="1">
          <mxGeometry x="827" y="1160" width="90" height="30" as="geometry" />
        </mxCell>
        <mxCell id="xYdfVFBbMIf11f9UNHaM-7" value="" style="endArrow=open;endSize=12;dashed=1;html=1;rounded=0;entryX=1;entryY=0;entryDx=0;entryDy=0;exitX=0;exitY=0.5;exitDx=0;exitDy=0;" edge="1" parent="1" source="xYdfVFBbMIf11f9UNHaM-2" target="ZRaR8AMyI3EaJyiS3ISA-3">
          <mxGeometry width="160" relative="1" as="geometry">
            <mxPoint x="870" y="1100" as="sourcePoint" />
            <mxPoint x="679" y="1088" as="targetPoint" />
          </mxGeometry>
        </mxCell>
        <mxCell id="xYdfVFBbMIf11f9UNHaM-8" value="&amp;lt;&amp;lt;extends&amp;gt;&amp;gt;" style="text;html=1;align=center;verticalAlign=middle;resizable=0;points=[];autosize=1;strokeColor=none;fillColor=none;rotation=-1;" vertex="1" parent="1">
          <mxGeometry x="870" y="1210" width="90" height="30" as="geometry" />
        </mxCell>
        <mxCell id="xYdfVFBbMIf11f9UNHaM-9" value="" style="endArrow=open;endSize=12;dashed=1;html=1;rounded=0;entryX=1;entryY=1;entryDx=0;entryDy=0;exitX=0;exitY=0.5;exitDx=0;exitDy=0;" edge="1" parent="1" source="xYdfVFBbMIf11f9UNHaM-4" target="ZRaR8AMyI3EaJyiS3ISA-3">
          <mxGeometry width="160" relative="1" as="geometry">
            <mxPoint x="880" y="1320" as="sourcePoint" />
            <mxPoint x="689" y="1308" as="targetPoint" />
          </mxGeometry>
        </mxCell>
        <mxCell id="xYdfVFBbMIf11f9UNHaM-10" value="&amp;lt;&amp;lt;extends&amp;gt;&amp;gt;" style="text;html=1;align=center;verticalAlign=middle;resizable=0;points=[];autosize=1;strokeColor=none;fillColor=none;rotation=20;" vertex="1" parent="1">
          <mxGeometry x="848" y="1281" width="90" height="30" as="geometry" />
        </mxCell>
      </root>
    </mxGraphModel>
  </diagram>
</mxfile>
